HIERARCHY
ROOT Hips
{
 OFFSET 0.000000 0.000000 0.000000
 CHANNELS 6 Xposition Yposition Zposition Yrotation Xrotation Zrotation
 JOINT Chest
 {
  OFFSET 0.000000 10.383400 0.001500
  CHANNELS 3 Yrotation Xrotation Zrotation
  JOINT Chest2
  {
   OFFSET 0.000000 10.418200 -0.003100
   CHANNELS 3 Yrotation Xrotation Zrotation
   JOINT Chest3
   {
    OFFSET 0.000000 10.375100 0.000000
    CHANNELS 3 Yrotation Xrotation Zrotation
    JOINT Chest4
    {
     OFFSET 0.000000 10.364600 0.000000
     CHANNELS 3 Yrotation Xrotation Zrotation
     JOINT Neck
     {
      OFFSET 0.000000 15.642200 0.000000
      CHANNELS 3 Yrotation Xrotation Zrotation
      JOINT Head
      {
       OFFSET 0.000000 9.697300 -0.006500
       CHANNELS 3 Yrotation Xrotation Zrotation
       End Site
       {
        OFFSET 0.000000 18.492200 -0.003400
       }
      }
     }
     JOINT RightCollar
     {
      OFFSET -3.166800 10.349300 0.000000
      CHANNELS 3 Yrotation Xrotation Zrotation
      JOINT RightShoulder
      {
       OFFSET -14.729700 0.000000 0.000000
       CHANNELS 3 Yrotation Xrotation Zrotation
       JOINT RightElbow
       {
        OFFSET 0.000000 -32.224300 0.000000
        CHANNELS 3 Yrotation Xrotation Zrotation
        JOINT RightWrist
        {
         OFFSET 0.000000 -26.084100 0.000000
         CHANNELS 3 Yrotation Xrotation Zrotation
         End Site
         {
          OFFSET 0.000000 -19.319400 0.000000
         }
        }
       }
      }
     }
     JOINT LeftCollar
     {
      OFFSET 3.166800 10.349300 0.000000
      CHANNELS 3 Yrotation Xrotation Zrotation
      JOINT LeftShoulder
      {
       OFFSET 14.729700 0.000000 0.000000
       CHANNELS 3 Yrotation Xrotation Zrotation
       JOINT LeftElbow
       {
        OFFSET 0.000000 -32.224300 0.000000
        CHANNELS 3 Yrotation Xrotation Zrotation
        JOINT LeftWrist
        {
         OFFSET 0.000000 -26.084100 0.000000
         CHANNELS 3 Yrotation Xrotation Zrotation
         End Site
         {
          OFFSET 0.000000 -19.319400 0.000000
         }
        }
       }
      }
     }
    }
   }
  }
 }
 JOINT RightHip
 {
  OFFSET -8.428900 -0.007500 -0.000800
  CHANNELS 3 Yrotation Xrotation Zrotation
  JOINT RightKnee
  {
   OFFSET 0.000000 -43.834600 0.000700
   CHANNELS 3 Yrotation Xrotation Zrotation
   JOINT RightAnkle
   {
    OFFSET 0.000000 -42.757000 0.001200
    CHANNELS 3 Yrotation Xrotation Zrotation
    JOINT RightToe
    {
     OFFSET 0.000000 -6.946900 15.649300
     CHANNELS 3 Yrotation Xrotation Zrotation
     End Site
     {
      OFFSET 0.000000 -1.580800 6.825800
     }
    }
   }
  }
 }
 JOINT LeftHip
 {
  OFFSET 8.428900 -0.007500 -0.000800
  CHANNELS 3 Yrotation Xrotation Zrotation
  JOINT LeftKnee
  {
   OFFSET 0.000000 -43.834600 0.000700
   CHANNELS 3 Yrotation Xrotation Zrotation
   JOINT LeftAnkle
   {
    OFFSET 0.000000 -42.757000 0.001200
    CHANNELS 3 Yrotation Xrotation Zrotation
    JOINT LeftToe
    {
     OFFSET 0.000000 -6.946900 15.649300
     CHANNELS 3 Yrotation Xrotation Zrotation
     End Site
     {
      OFFSET 0.000000 -1.580800 6.825800
     }
    }
   }
  }
 }
}
MOTION
Frames: 5
Frame Time: 0.008333
0.000000 93.354300 0.000000 0.000000 -5.767877 0.000000 0.000000 11.653817 0.000000 0.000000 -5.885947 0.000000 0.000000 -0.000000 0.000000 0.000000 -0.000000 0.000000 0.000000 12.528835 0.000000 0.000000 0.711642 0.000000 0.000000 -0.000000 0.000000 0.000000 0.000000 -90.000000 0.000000 -2.309062 0.000000 0.000000 2.309062 0.000000 0.000000 -0.000000 0.000000 0.000000 -0.000000 90.000000 0.000000 -2.309062 0.000000 0.000000 2.309062 0.000000 0.000000 8.520406 0.000000 0.000000 1.905762 0.000000 -0.000000 -4.658285 0.000000 0.000000 -0.000000 0.000000 0.000000 8.520406 0.000000 0.000000 1.905762 0.000000 -0.000000 -4.658285 0.000000 0.000000 -0.000000 0.000000
24.210674 126.966772 -52.345677 -16.275322 -28.761963 -1.078691 -0.027171 17.887214 2.374133 -0.041053 1.985832 0.261226 -0.063300 3.292275 0.432310 -0.069079 15.628622 2.065843 1.774013 12.477979 -1.633600 4.103231 -12.519230 -3.872647 -3.621369 -5.086976 -4.781735 9.544975 -11.186958 -7.949299 27.982209 -49.234795 -1.963668 8.781971 9.151115 -22.426656 -1.770705 -8.933545 -2.694692 -4.583919 -6.093137 7.758208 -46.230988 -53.290559 17.518718 -27.207640 14.845750 17.664304 -3.468887 -39.968850 -0.888192 -51.317522 82.084929 -52.002108 -0.507914 -13.997201 4.739303 0.001337 -0.007205 0.000594 -1.700407 -32.821787 -4.671058 8.458361 74.882591 11.725096 -9.076248 -12.534185 -3.439418 0.002841 0.001431 0.001261
24.211244 126.966943 -52.346026 -16.273649 -28.765333 -1.079304 -0.027417 17.886930 2.373940 -0.040450 1.986942 0.261880 -0.060432 3.287177 0.432139 -0.067708 15.632704 2.067227 1.789208 12.484872 -1.640945 4.117970 -12.510532 -3.883828 -3.624071 -5.084395 -4.782840 9.546579 -11.192263 -7.954732 27.976881 -49.228849 -1.947523 8.770220 9.150909 -22.433496 -1.795491 -8.954644 -2.682717 -4.575910 -6.078865 7.750268 -46.209581 -53.281804 17.506125 -27.212711 14.845650 17.661992 -3.466501 -39.965261 -0.889437 -51.311144 82.082478 -51.995060 -0.507638 -13.993838 4.738633 0.001433 -0.006825 0.000636 -1.699983 -32.817196 -4.669036 8.461258 74.878762 11.724073 -9.085542 -12.532968 -3.433630 0.001728 0.001345 0.000767
24.211939 126.967016 -52.346555 -16.270034 -28.767816 -1.081121 -0.030583 17.887295 2.373415 -0.039254 1.986004 0.261890 -0.061762 3.288789 0.432430 -0.064981 15.631199 2.067272 1.803506 12.491043 -1.648149 4.111307 -12.510065 -3.879746 -3.615717 -5.086697 -4.782087 9.543866 -11.191538 -7.962973 27.971122 -49.224908 -1.934164 8.756853 9.147845 -22.438385 -1.805416 -8.967415 -2.673958 -4.581345 -6.072574 7.744314 -46.197693 -53.266562 17.491084 -27.203455 14.846059 17.673322 -3.465976 -39.962205 -0.890919 -51.295700 82.080806 -51.978185 -0.508686 -13.991193 4.735963 0.000926 -0.006596 0.000411 -1.701132 -32.814016 -4.666284 8.451468 74.875484 11.710251 -9.091905 -12.529977 -3.427714 0.000657 0.001506 0.000292
24.212714 126.967133 -52.346944 -16.265894 -28.771010 -1.083054 -0.034331 17.889857 2.373072 -0.040216 1.983804 0.261256 -0.061709 3.290265 0.432882 -0.070464 15.629579 2.066799 1.829040 12.498843 -1.662752 4.134004 -12.496381 -3.894371 -3.599486 -5.090243 -4.783383 9.552164 -11.197594 -7.977439 27.940278 -49.215980 -1.907696 8.756755 9.145606 -22.431964 -1.805479 -8.982065 -2.667725 -4.631746 -6.097788 7.753042 -46.095580 -53.220912 17.394877 -27.187847 14.845865 17.707657 -3.464972 -39.958184 -0.890844 -51.281851 82.084937 -51.966416 -0.515804 -13.992946 4.736260 -0.000882 -0.005692 -0.000391 -1.702313 -32.809596 -4.666423 8.457043 74.872769 11.716382 -9.097717 -12.532367 -3.427246 0.001378 0.000903 0.000612
